<?xml version="1.0" standalone="yes"?>
<svg xmlns="http://www.w3.org/2000/svg" width="666" height="375">
<path style="fill:#010101; stroke:none;" d="M0 0L0 375L666 375L666 0L0 0z"/>
<path style="fill:#fcfcfc; stroke:none;" d="M4 125L5 125L5 96L11 96C-0.901504 88.9753 4 118.578 4 125M449 94L449 95L452 95L449 94M229 95L229 96L266 96C256.202 91.8887 239.649 95 229 95z"/>
<path style="fill:#f0f0f0; stroke:none;" d="M266 95L266 96L317 96C303.873 90.4916 280.311 95 266 95z"/>
<path style="fill:#fcfcfc; stroke:none;" d="M411 95L411 96L423 96L411 95z"/>
<path style="fill:#f0f0f0; stroke:none;" d="M423.667 95.3333L424.333 95.6667L423.667 95.3333M447 95L448 96L447 95z"/>
<path style="fill:#e4e4e4; stroke:none;" d="M448 242L449 242L448 193L448 96L453 96C443.651 92.4479 447 123.016 447 129L447 205C447 216.541 444.725 230.92 448 242z"/>
<path style="fill:#f0f0f0; stroke:none;" d="M453 95L453 96L458 96L453 95z"/>
<path style="fill:#fcfcfc; stroke:none;" d="M458 95L458 96L466 96L458 95z"/>
<path style="fill:#f0f0f0; stroke:none;" d="M560.667 95.3333L561.333 95.6667L560.667 95.3333z"/>
<path style="fill:#fcfcfc; stroke:none;" d="M562 95L562 96L570 96L562 95z"/>
<path style="fill:#e4e4e4; stroke:none;" d="M5 98L10 97L5 98z"/>
<path style="fill:#f0f0f0; stroke:none;" d="M10 96L10 97L18 97L10 96z"/>
<path style="fill:#fcfcfc; stroke:none;" d="M18 96L18 97L29 97L18 96z"/>
<path style="fill:#f0f0f0; stroke:none;" d="M114 96L115 97L114 96z"/>
<path style="fill:#e4e4e4; stroke:none;" d="M114 131L115 131C115 123.47 111.359 101.305 118 97C113.778 96.0518 114.023 100.832 114.001 104C113.939 112.999 114 122.001 114 131z"/>
<path style="fill:#f0f0f0; stroke:none;" d="M118 96L118 97L126 97L118 96z"/>
<path style="fill:#fcfcfc; stroke:none;" d="M126 96L126 97L136 97L126 96M227 96L226 98L227 96z"/>
<path style="fill:#e4e4e4; stroke:none;" d="M228 96L227 98L228 96z"/>
<path style="fill:#d9d9d9; stroke:none;" d="M229.184 97.0278C223.065 100.511 223 107.921 223 114L223 159C223 176.702 224 194.349 224 212C224 218.155 221.855 229.36 225.028 234.79C228.966 241.531 238.238 242 245 242L296 242C301.84 242 312.528 243.216 317.61 239.972C322.659 236.749 323.971 228.395 323.999 223C324.083 206.976 325 190.968 325 175L325 125C325 118.907 326.734 109.565 323.973 104C319.496 94.9766 311.549 96 303 96L251 96C245.007 96 234.51 93.9958 229.184 97.0278z"/>
<path style="fill:#f0f0f0; stroke:none;" d="M318 96L321 99L318 96z"/>
<path style="fill:#fcfcfc; stroke:none;" d="M382 96L382 97L398 97L382 96z"/>
<path style="fill:#f0f0f0; stroke:none;" d="M398 96L398 97L406 97L398 96z"/>
<path style="fill:#e4e4e4; stroke:none;" d="M406 96L406 97L417 97L406 96z"/>
<path style="fill:#d9d9d9; stroke:none;" d="M334 242L368 241C368.763 231.328 369.776 221.71 370.015 212C370.099 208.561 369.988 202.198 372.603 199.603C377.309 194.933 394.622 197 401 197L402 242L439 242C439 208.967 438.482 175.953 437.039 143C436.328 126.764 439.695 112.441 428.076 99.1481C424.206 94.7214 419.135 96.3415 414 96.8302C404.929 97.6934 395.101 97.9554 386 97.9992C375.141 98.0516 351.281 95.1008 343.189 103.144C335.525 110.762 338.049 131.716 337.999 142C337.838 175.339 334 208.617 334 242z"/>
<path style="fill:#e4e4e4; stroke:none;" d="M426 96L427 97L426 96z"/>
<path style="fill:#d9d9d9; stroke:none;" d="M448 96L448 241L484 238L486 205C506.099 205.015 501.872 231.188 515.39 240.223C520.799 243.838 544.839 236.03 545.393 228.995C546.041 220.76 536.663 209.821 534 202C541.917 200.993 546.899 198.172 549.351 190C554.417 173.113 550 148.648 550 131C550 123.344 552.432 111.091 546.852 105.059C540.745 98.457 526.393 100.191 518 99.9854C494.64 99.413 471.405 96 448 96z"/>
<path style="fill:#e4e4e4; stroke:none;" d="M464 96L464 97L469 97L464 96z"/>
<path style="fill:#f0f0f0; stroke:none;" d="M469 96L469 97L476 97L469 96z"/>
<path style="fill:#fcfcfc; stroke:none;" d="M476 96L476 97L484 97L476 96z"/>
<path style="fill:#e4e4e4; stroke:none;" d="M559 96L559 116L560 116L559 96z"/>
<path style="fill:#d9d9d9; stroke:none;" d="M560 96L559 242C580.287 242 602.349 242.433 623.576 240.759C629.675 240.278 640.769 241.934 645.83 238.397C650.256 235.303 657.366 227.284 658.682 222C662.734 205.735 659.603 184.791 660.015 168C660.36 153.896 663.687 137.975 661.867 124C661.069 117.875 653.783 108.168 648.816 104.603C643.383 100.705 633.359 102.411 627 101.576C605.153 98.7057 582.023 96.4547 560 96z"/>
<path style="fill:#e4e4e4; stroke:none;" d="M566 96L566 97L571 97L566 96z"/>
<path style="fill:#f0f0f0; stroke:none;" d="M571 96L571 97L576 97L571 96z"/>
<path style="fill:#fcfcfc; stroke:none;" d="M576 96L576 97L582 97L576 96z"/>
<path style="fill:#d9d9d9; stroke:none;" d="M4 242C28.4998 242 53.5954 242.316 78 240.167C87.0993 239.365 98.8734 240.209 103.397 229.7C107.936 219.152 107.461 192.084 104.682 181C103.577 176.591 97.272 173.581 97.5872 169C97.8043 165.844 100.588 163.328 100.877 160C102.283 143.79 102.498 116.213 90.9992 104.148C86.3265 99.245 76.3638 100.013 70 100C55.4749 99.9711 40.505 98.9038 26 97.9105C21.4496 97.5989 9.37656 94.3752 6.02778 98.6034C4.08828 101.052 5 106.09 5 109L5 136C5 171.383 4 206.661 4 242z"/>
<path style="fill:#e4e4e4; stroke:none;" d="M22 97L22 98L29 98L22 97z"/>
<path style="fill:#f0f0f0; stroke:none;" d="M29 97L29 98L38 98L29 97z"/>
<path style="fill:#fcfcfc; stroke:none;" d="M38 97L38 98L51 98L38 97z"/>
<path style="fill:#d9d9d9; stroke:none;" d="M115 97L114 242C133.718 242 153.278 241.008 173 241C180.966 240.997 194.858 242.185 202 238.697C205.64 236.919 210.955 233.429 212.972 229.826C215.416 225.463 214 217.854 214 213C214 197.71 217.871 180.726 205 170C212.358 161.253 209.389 151.56 209.035 141C208.589 127.675 210.469 113.065 199.561 103.317C193.749 98.123 183.139 100.273 176 99.9606C155.681 99.0708 135.365 97 115 97z"/>
<path style="fill:#e4e4e4; stroke:none;" d="M131 97L131 98L139 98L131 97z"/>
<path style="fill:#f0f0f0; stroke:none;" d="M139 97L139 98L146 98L139 97z"/>
<path style="fill:#fcfcfc; stroke:none;" d="M146 97L146 98L160 98L146 97z"/>
<path style="fill:#e4e4e4; stroke:none;" d="M318 97L319 98L318 97z"/>
<path style="fill:#fcfcfc; stroke:none;" d="M359 97L359 98L377 98L359 97z"/>
<path style="fill:#f0f0f0; stroke:none;" d="M377 97L377 98L383 98L377 97z"/>
<path style="fill:#e4e4e4; stroke:none;" d="M383 97L383 98L394 98L383 97z"/>
<path style="fill:#f0f0f0; stroke:none;" d="M427 97L428 98L427 97z"/>
<path style="fill:#e4e4e4; stroke:none;" d="M479 97L479 98L487 98L479 97z"/>
<path style="fill:#f0f0f0; stroke:none;" d="M487 97L487 98L492 98L487 97z"/>
<path style="fill:#fcfcfc; stroke:none;" d="M492 97L492 98L502 98L492 97z"/>
<path style="fill:#e4e4e4; stroke:none;" d="M578 97L578 98L583 98L578 97z"/>
<path style="fill:#f0f0f0; stroke:none;" d="M583 97L583 98L588 98L583 97z"/>
<path style="fill:#fcfcfc; stroke:none;" d="M588 97L588 98L597 98L588 97z"/>
<path style="fill:#e4e4e4; stroke:none;" d="M41 98L41 99L49 99L41 98z"/>
<path style="fill:#f0f0f0; stroke:none;" d="M49 98L49 99L58 99L49 98z"/>
<path style="fill:#fcfcfc; stroke:none;" d="M58 98L58 99L69 99L58 98z"/>
<path style="fill:#e4e4e4; stroke:none;" d="M149 98L150 99L149 98M151 98L151 99L159 99L151 98z"/>
<path style="fill:#f0f0f0; stroke:none;" d="M159 98L159 99L166 99L159 98z"/>
<path style="fill:#fcfcfc; stroke:none;" d="M166 98L166 99L177 99L166 98z"/>
<path style="fill:#f0f0f0; stroke:none;" d="M226 98L227 99L226 98z"/>
<path style="fill:#e4e4e4; stroke:none;" d="M319 98L320 99L319 98z"/>
<path style="fill:#fcfcfc; stroke:none;" d="M348 98L348 99L354 99L348 98z"/>
<path style="fill:#f0f0f0; stroke:none;" d="M354 98L354 99L362 99L354 98z"/>
<path style="fill:#e4e4e4; stroke:none;" d="M362 98L362 99L372 99L362 98M427 98L429 100L427 98z"/>
<path style="fill:#fcfcfc; stroke:none;" d="M428 98L429 99L428 98z"/>
<path style="fill:#e4e4e4; stroke:none;" d="M494 98L494 99L502 99L494 98z"/>
<path style="fill:#f0f0f0; stroke:none;" d="M502 98L502 99L509 99L502 98z"/>
<path style="fill:#fcfcfc; stroke:none;" d="M509 98L509 99L518 99L509 98z"/>
<path style="fill:#e4e4e4; stroke:none;" d="M591 98L591 99L595 99L591 98z"/>
<path style="fill:#f0f0f0; stroke:none;" d="M595 98L595 99L600 99L595 98z"/>
<path style="fill:#fcfcfc; stroke:none;" d="M600 98L600 99L608 99L600 98z"/>
<path style="fill:#e4e4e4; stroke:none;" d="M61 99L61 100L70 100L61 99z"/>
<path style="fill:#f0f0f0; stroke:none;" d="M70 99L70 100L77 100L70 99z"/>
<path style="fill:#fcfcfc; stroke:none;" d="M77 99L77 100L84 100L77 99z"/>
<path style="fill:#e4e4e4; stroke:none;" d="M171 99L171 100L179 100L171 99z"/>
<path style="fill:#f0f0f0; stroke:none;" d="M179 99L179 100L186 100L179 99z"/>
<path style="fill:#fcfcfc; stroke:none;" d="M186 99L186 100L192 100L186 99M225 99L224 101L225 99z"/>
<path style="fill:#e4e4e4; stroke:none;" d="M226 99L227 100L226 99M320 99L325 104L320 99z"/>
<path style="fill:#fcfcfc; stroke:none;" d="M321 99L322 100L321 99z"/>
<path style="fill:#f0f0f0; stroke:none;" d="M345 99L344 101L345 99z"/>
<path style="fill:#e4e4e4; stroke:none;" d="M346 99L346 100L350 100L346 99z"/>
<path style="fill:#fcfcfc; stroke:none;" d="M429 99L430 100L429 99z"/>
<path style="fill:#e4e4e4; stroke:none;" d="M512 99L512 100L518 100L512 99z"/>
<path style="fill:#f0f0f0; stroke:none;" d="M518 99L518 100L524 100L518 99z"/>
<path style="fill:#fcfcfc; stroke:none;" d="M524 99L524 100L534 100L524 99z"/>
<path style="fill:#e4e4e4; stroke:none;" d="M602 99L602 100L608 100L602 99z"/>
<path style="fill:#f0f0f0; stroke:none;" d="M608 99L608 100L612 100L608 99z"/>
<path style="fill:#fcfcfc; stroke:none;" d="M612 99L612 100L621 100L612 99z"/>
<path style="fill:#e4e4e4; stroke:none;" d="M79 100L79 101L88 101L79 100z"/>
<path style="fill:#f0f0f0; stroke:none;" d="M88 100L89 101L88 100z"/>
<path style="fill:#e4e4e4; stroke:none;" d="M192 100L192 101L197 101L192 100z"/>
<path style="fill:#f0f0f0; stroke:none;" d="M225 100L226 101L225 100z"/>
<path style="fill:#fcfcfc; stroke:none;" d="M322 100L323 101L322 100z"/>
<path style="fill:#e4e4e4; stroke:none;" d="M345 100L346 101L345 100z"/>
<path style="fill:#f0f0f0; stroke:none;" d="M429 100L430 101L429 100z"/>
<path style="fill:#e4e4e4; stroke:none;" d="M529 100L529 101L534 101L529 100z"/>
<path style="fill:#f0f0f0; stroke:none;" d="M534 100L534 101L541 101L534 100z"/>
<path style="fill:#fcfcfc; stroke:none;" d="M541.667 100.333L542.333 100.667L541.667 100.333M558 100L558 149L559 149C559 135.212 563.309 112.652 558 100z"/>
<path style="fill:#e4e4e4; stroke:none;" d="M616 100L616 101L619 101L616 100z"/>
<path style="fill:#f0f0f0; stroke:none;" d="M619 100L619 101L624 101L619 100z"/>
<path style="fill:#fcfcfc; stroke:none;" d="M624 100L624 101L633 101L624 100z"/>
<path style="fill:#f0f0f0; stroke:none;" d="M89 101L91 103L89 101z"/>
<path style="fill:#fcfcfc; stroke:none;" d="M113 101L113 158L114 158L114 119L113 101z"/>
<path style="fill:#e4e4e4; stroke:none;" d="M198 101L199 102L198 101z"/>
<path style="fill:#f0f0f0; stroke:none;" d="M224 101L225 102L224 101z"/>
<path style="fill:#fcfcfc; stroke:none;" d="M323 101L324 102L323 101M343 101L340 105L343 101z"/>
<path style="fill:#e4e4e4; stroke:none;" d="M344 101L345 102L344 101z"/>
<path style="fill:#fcfcfc; stroke:none;" d="M430 101L432 103L430 101z"/>
<path style="fill:#e4e4e4; stroke:none;" d="M543 101L550 108L543 101z"/>
<path style="fill:#fcfcfc; stroke:none;" d="M544 101L545 102L544 101z"/>
<path style="fill:#e4e4e4; stroke:none;" d="M626 101L626 102L632 102L626 101z"/>
<path style="fill:#f0f0f0; stroke:none;" d="M632 101L632 102L637 102L632 101z"/>
<path style="fill:#fcfcfc; stroke:none;" d="M637 101L637 102L645 102L637 101z"/>
<path style="fill:#e4e4e4; stroke:none;" d="M89 102L90 103L89 102z"/>
<path style="fill:#f0f0f0; stroke:none;" d="M199 102L200 103L199 102z"/>
<path style="fill:#fcfcfc; stroke:none;" d="M223 102L222 104L223 102z"/>
<path style="fill:#e4e4e4; stroke:none;" d="M224 102L225 103L224 102z"/>
<path style="fill:#fcfcfc; stroke:none;" d="M324 102L325 103L324 102z"/>
<path style="fill:#e4e4e4; stroke:none;" d="M343 102L344 103L343 102M430 102L431 103L430 102z"/>
<path style="fill:#fcfcfc; stroke:none;" d="M545 102L546 103L545 102z"/>
<path style="fill:#e4e4e4; stroke:none;" d="M639 102L639 103L643 103L639 102z"/>
<path style="fill:#f0f0f0; stroke:none;" d="M643 102L643 103L648 103L643 102z"/>
<path style="fill:#fcfcfc; stroke:none;" d="M648 102L651 105L648 102z"/>
<path style="fill:#e4e4e4; stroke:none;" d="M90 103L92 105L90 103z"/>
<path style="fill:#fcfcfc; stroke:none;" d="M91 103L92 104L91 103z"/>
<path style="fill:#f0f0f0; stroke:none;" d="M200 103L201 104L200 103M223 103L224 104L223 103z"/>
<path style="fill:#fcfcfc; stroke:none;" d="M325 103L326 104L325 103z"/>
<path style="fill:#e4e4e4; stroke:none;" d="M342 103L343 104L342 103z"/>
<path style="fill:#f0f0f0; stroke:none;" d="M431 103L432 104L431 103z"/>
<path style="fill:#fcfcfc; stroke:none;" d="M446 103L446 121L447 121L446 103M546 103L547 104L546 103z"/>
<path style="fill:#e4e4e4; stroke:none;" d="M648 103L649 104L648 103z"/>
<path style="fill:#fcfcfc; stroke:none;" d="M92 104L94 106L92 104z"/>
<path style="fill:#e4e4e4; stroke:none;" d="M200 104L202 106L200 104z"/>
<path style="fill:#fcfcfc; stroke:none;" d="M201 104L202 105L201 104z"/>
<path style="fill:#f0f0f0; stroke:none;" d="M222 104L222 107L223 107L222 104M325 104L326 105L325 104M341 104L342 105L341 104z"/>
<path style="fill:#e4e4e4; stroke:none;" d="M431 104L433 106L431 104z"/>
<path style="fill:#fcfcfc; stroke:none;" d="M432 104L433 105L432 104M547 104L548 105L547 104z"/>
<path style="fill:#e4e4e4; stroke:none;" d="M649 104L650 105L649 104z"/>
<path style="fill:#f0f0f0; stroke:none;" d="M92 105L93 106L92 105z"/>
<path style="fill:#fcfcfc; stroke:none;" d="M202 105L204 107L202 105z"/>
<path style="fill:#e4e4e4; stroke:none;" d="M325 105L325 129L326 129L325 105z"/>
<path style="fill:#f0f0f0; stroke:none;" d="M340 105L339 107L340 105z"/>
<path style="fill:#fcfcfc; stroke:none;" d="M433 105L435 109L436 109L433 105M548 105L549 106L548 105z"/>
<path style="fill:#f0f0f0; stroke:none;" d="M650 105L651 106L650 105M93 106L94 107L93 106M202 106L203 107L202 106z"/>
<path style="fill:#fcfcfc; stroke:none;" d="M326 106L326 125L327 125L326 106z"/>
<path style="fill:#e4e4e4; stroke:none;" d="M340 106L341 107L340 106z"/>
<path style="fill:#f0f0f0; stroke:none;" d="M433 106L434 107L433 106M549 106L550 107L549 106z"/>
<path style="fill:#fcfcfc; stroke:none;" d="M651 106L653 108L651 106z"/>
<path style="fill:#e4e4e4; stroke:none;" d="M93 107L96 110L93 107z"/>
<path style="fill:#fcfcfc; stroke:none;" d="M94 107L95 108L94 107z"/>
<path style="fill:#f0f0f0; stroke:none;" d="M203 107L204 108L203 107z"/>
<path style="fill:#e4e4e4; stroke:none;" d="M222 107L222 112L223 112L222 107z"/>
<path style="fill:#fcfcfc; stroke:none;" d="M338 107L338 110L339 110L338 107z"/>
<path style="fill:#e4e4e4; stroke:none;" d="M339 107L340 108L339 107M433 107L434 108L433 107z"/>
<path style="fill:#fcfcfc; stroke:none;" d="M550 107L551 108L550 107z"/>
<path style="fill:#e4e4e4; stroke:none;" d="M651 107L652 108L651 107z"/>
<path style="fill:#fcfcfc; stroke:none;" d="M95 108L96 109L95 108z"/>
<path style="fill:#f0f0f0; stroke:none;" d="M204 108L205 109L204 108z"/>
<path style="fill:#e4e4e4; stroke:none;" d="M434 108L435 109L434 108z"/>
<path style="fill:#f0f0f0; stroke:none;" d="M550 108L551 109L550 108M652 108L653 109L652 108z"/>
<path style="fill:#fcfcfc; stroke:none;" d="M96 109L97 110L96 109z"/>
<path style="fill:#e4e4e4; stroke:none;" d="M204 109L206 111L204 109z"/>
<path style="fill:#fcfcfc; stroke:none;" d="M205 109L206 110L205 109z"/>
<path style="fill:#f0f0f0; stroke:none;" d="M435 109L436 110L435 109z"/>
<path style="fill:#e4e4e4; stroke:none;" d="M550 109L550 121L551 121L550 109z"/>
<path style="fill:#f0f0f0; stroke:none;" d="M653 109L654 110L653 109M96 110L97 111L96 110z"/>
<path style="fill:#fcfcfc; stroke:none;" d="M206 110L207 111L206 110z"/>
<path style="fill:#f0f0f0; stroke:none;" d="M338 110L338 119L339 119L338 110z"/>
<path style="fill:#e4e4e4; stroke:none;" d="M435 110L437 112L435 110z"/>
<path style="fill:#fcfcfc; stroke:none;" d="M436 110L437 111L436 110z"/>
<path style="fill:#e4e4e4; stroke:none;" d="M653 110L655 112L653 110z"/>
<path style="fill:#fcfcfc; stroke:none;" d="M654 110L655 111L654 110z"/>
<path style="fill:#f0f0f0; stroke:none;" d="M97 111L98 112L97 111M206 111L207 112L206 111z"/>
<path style="fill:#fcfcfc; stroke:none;" d="M437.333 111.667L437.667 112.333L437.333 111.667M551 111L551 187L552 187L552 135L551 111M655 111L657 113L655 111z"/>
<path style="fill:#e4e4e4; stroke:none;" d="M97 112L99 114L97 112z"/>
<path style="fill:#fcfcfc; stroke:none;" d="M98 112L99 113L98 112z"/>
<path style="fill:#f0f0f0; stroke:none;" d="M207 112L208 113L207 112M222 112L222 151L223 151C223 139.828 226.311 122.274 222 112M655 112L656 113L655 112z"/>
<path style="fill:#e4e4e4; stroke:none;" d="M207 113L208 114L207 113z"/>
<path style="fill:#fcfcfc; stroke:none;" d="M208 113L209 114L208 113z"/>
<path style="fill:#f0f0f0; stroke:none;" d="M437 113L437 129L438 129L437 113M656 113L657 114L656 113z"/>
<path style="fill:#fcfcfc; stroke:none;" d="M99 114L100 115L99 114z"/>
<path style="fill:#f0f0f0; stroke:none;" d="M208.333 114.667L208.667 115.333L208.333 114.667M657 114L658 115L657 114M99 115L99 125L100 125L99 115z"/>
<path style="fill:#e4e4e4; stroke:none;" d="M657 115L658 116L657 115z"/>
<path style="fill:#fcfcfc; stroke:none;" d="M658 115L660 117L658 115z"/>
<path style="fill:#e4e4e4; stroke:none;" d="M208 116L208 127L209 127L208 116z"/>
<path style="fill:#f0f0f0; stroke:none;" d="M658 116L659 117L658 116M659 117L660 118L659 117z"/>
<path style="fill:#fcfcfc; stroke:none;" d="M209 118L209 131L210 131L209 118M337 118L337 135L338 135L337 118M660 118L662 120L660 118z"/>
<path style="fill:#e4e4e4; stroke:none;" d="M338 119L338 129L339 129L338 119M660 119L661 120L660 119z"/>
<path style="fill:#fcfcfc; stroke:none;" d="M438 120L438 158L439 158C439 147.089 442.211 130.036 438 120z"/>
<path style="fill:#e4e4e4; stroke:none;" d="M661 120L662 121L661 120z"/>
<path style="fill:#fcfcfc; stroke:none;" d="M100 121L100 138L101 138L100 121z"/>
<path style="fill:#f0f0f0; stroke:none;" d="M550 121L550 125L551 125L550 121z"/>
<path style="fill:#fcfcfc; stroke:none;" d="M662 121L662 141L663 141L662 121z"/>
<path style="fill:#e4e4e4; stroke:none;" d="M40 124L40 125L44 125L40 124M149 124L149 146L150 146C150 140.181 147.636 128.477 153 125L149 124z"/>
<path style="fill:#f0f0f0; stroke:none;" d="M4 125L4 167L5 167C5 155.043 8.61066 135.988 4 125M40 125L40 140L41 140L40 125z"/>
<path style="fill:#fcfcfc; stroke:none;" d="M41 127L52 127C48.763 125.604 43.5565 124.188 41 127z"/>
<path style="fill:#f0f0f0; stroke:none;" d="M45.6667 125.333L46.3333 125.667L45.6667 125.333z"/>
<path style="fill:#e4e4e4; stroke:none;" d="M47 125L47 126L51 126L47 125M99 125L99 131L100 131L99 125z"/>
<path style="fill:#fcfcfc; stroke:none;" d="M150 125C150 131.511 146.771 149.601 154 152L154 151L151 151L151 126L155 126L150 125z"/>
<path style="fill:#f0f0f0; stroke:none;" d="M155.667 125.333L156.333 125.667L155.667 125.333z"/>
<path style="fill:#e4e4e4; stroke:none;" d="M157 125L157 126L160 126L157 125z"/>
<path style="fill:#fcfcfc; stroke:none;" d="M446 125L446 154L447 154L446 125z"/>
<path style="fill:#e4e4e4; stroke:none;" d="M550 125L550 189L551 189L551 145L550 125z"/>
<path style="fill:#010101; stroke:none;" d="M65 154L64 129C59.3093 128.126 46.7318 124.274 42.6042 127.117C39.7071 129.113 41.8366 135.166 41.9606 138C42.1075 141.354 40.773 147.464 43.0278 150.258C46.2569 154.259 60.144 153.9 65 154z"/>
<path style="fill:#f0f0f0; stroke:none;" d="M52.6667 126.333L53.3333 126.667L52.6667 126.333z"/>
<path style="fill:#e4e4e4; stroke:none;" d="M54.6667 126.333L55.3333 126.667L54.6667 126.333z"/>
<path style="fill:#010101; stroke:none;" d="M151 126L151 151L174 154C174 148.35 176.596 133.814 172.397 129.603C168.687 125.884 156.07 126.105 151 126z"/>
<path style="fill:#fcfcfc; stroke:none;" d="M157 126L157 127L160 127L157 126z"/>
<path style="fill:#f0f0f0; stroke:none;" d="M160 126L160 127L163 127L160 126z"/>
<path style="fill:#e4e4e4; stroke:none;" d="M163 126L163 127L166 127L163 126z"/>
<path style="fill:#f0f0f0; stroke:none;" d="M261 126L261 127L265 127L261 126z"/>
<path style="fill:#e4e4e4; stroke:none;" d="M265 126L265 127L269 127L265 126z"/>
<path style="fill:#fcfcfc; stroke:none;" d="M54 127L54 128L58 128L54 127z"/>
<path style="fill:#f0f0f0; stroke:none;" d="M58.6667 127.333L59.3333 127.667L58.6667 127.333z"/>
<path style="fill:#e4e4e4; stroke:none;" d="M60 127L60 128L63 128L60 127z"/>
<path style="fill:#fcfcfc; stroke:none;" d="M164.667 127.333L165.333 127.667L164.667 127.333z"/>
<path style="fill:#f0f0f0; stroke:none;" d="M166 127L166 128L169 128L166 127z"/>
<path style="fill:#e4e4e4; stroke:none;" d="M169 127L169 128L172 128L169 127M260.333 127.667L260.667 128.333L260.333 127.667z"/>
<path style="fill:#fcfcfc; stroke:none;" d="M261 127L261 147L262 147L261 127z"/>
<path style="fill:#010101; stroke:none;" d="M262 127L263 210L284.397 210.883L286 191L286 129L262 127z"/>
<path style="fill:#fcfcfc; stroke:none;" d="M265 127L265 128L271 128L265 127z"/>
<path style="fill:#f0f0f0; stroke:none;" d="M271 127L271 128L277 128L271 127z"/>
<path style="fill:#e4e4e4; stroke:none;" d="M277 127L277 128L281 128L277 127M487 127L488 128L487 127z"/>
<path style="fill:#f0f0f0; stroke:none;" d="M488 127L489 128L488 127z"/>
<path style="fill:#fcfcfc; stroke:none;" d="M489 127L488 146L489 146L489 127z"/>
<path style="fill:#f0f0f0; stroke:none;" d="M490 127L490 128L494 128L490 127z"/>
<path style="fill:#e4e4e4; stroke:none;" d="M494 127L494 128L498 128L494 127z"/>
<path style="fill:#fcfcfc; stroke:none;" d="M61 128L61 129L64 129L64 141L65 141C65 136.155 66.4648 129.814 61 128z"/>
<path style="fill:#f0f0f0; stroke:none;" d="M64 128L65 129L64 128z"/>
<path style="fill:#e4e4e4; stroke:none;" d="M65 128L65 140L66 140L65 128z"/>
<path style="fill:#fcfcfc; stroke:none;" d="M172 128L174 130L172 128z"/>
<path style="fill:#f0f0f0; stroke:none;" d="M173 128L174 138L175 138L173 128z"/>
<path style="fill:#e4e4e4; stroke:none;" d="M174 128L175 129L174 128z"/>
<path style="fill:#fcfcfc; stroke:none;" d="M276 128L276 129L283 129L276 128z"/>
<path style="fill:#f0f0f0; stroke:none;" d="M283 128L283 129L287 129L283 128z"/>
<path style="fill:#010101; stroke:none;" d="M489 128L488 171L511 170L511 130L489 128z"/>
<path style="fill:#fcfcfc; stroke:none;" d="M492 128L492 129L500 129L492 128z"/>
<path style="fill:#f0f0f0; stroke:none;" d="M500 128L500 129L504 129L500 128z"/>
<path style="fill:#e4e4e4; stroke:none;" d="M504 128L504 129L508 129L504 128z"/>
<path style="fill:#fcfcfc; stroke:none;" d="M286 129L286 204L287 204L287 152L286 129z"/>
<path style="fill:#e4e4e4; stroke:none;" d="M287 129L287 154L288 154L287 129z"/>
<path style="fill:#f0f0f0; stroke:none;" d="M325 129L325 167L326 167C326 156.089 329.211 139.036 325 129z"/>
<path style="fill:#e4e4e4; stroke:none;" d="M437 129L437 148L438 148L437 129M487 129L487 150L488 150L487 129z"/>
<path style="fill:#fcfcfc; stroke:none;" d="M505 129L505 130L510 130L505 129z"/>
<path style="fill:#f0f0f0; stroke:none;" d="M510.667 129.333L511.333 129.667L510.667 129.333z"/>
<path style="fill:#e4e4e4; stroke:none;" d="M512 129L512 170L513 170C513 158.304 516.511 139.75 512 129z"/>
<path style="fill:#fcfcfc; stroke:none;" d="M511 130L511 170L512 170C512 158.566 515.411 140.512 511 130z"/>
<path style="fill:#f0f0f0; stroke:none;" d="M209 131L209 139L210 139L209 131z"/>
<path style="fill:#e4e4e4; stroke:none;" d="M596 131L596 142L597 142L596 131z"/>
<path style="fill:#f0f0f0; stroke:none;" d="M597.667 131.333L598.333 131.667L597.667 131.333z"/>
<path style="fill:#e4e4e4; stroke:none;" d="M599 131L600 132L599 131M394 132L394 133L400 133L394 132z"/>
<path style="fill:#fcfcfc; stroke:none;" d="M597 132L597 158L598 158C598 151.634 595.205 136.757 601 133L597 132z"/>
<path style="fill:#f0f0f0; stroke:none;" d="M601 132L602 133L601 132z"/>
<path style="fill:#e4e4e4; stroke:none;" d="M602 132L603 133L602 132z"/>
<path style="fill:#fcfcfc; stroke:none;" d="M41 133C41 138.531 38.8764 148.678 44 152L44 151L41 133z"/>
<path style="fill:#e4e4e4; stroke:none;" d="M114.333 133.667L114.667 134.333L114.333 133.667M260 133L261 134L260 133M382 133L382 134L386 134L382 133z"/>
<path style="fill:#f0f0f0; stroke:none;" d="M386 133L386 134L391 134L386 133z"/>
<path style="fill:#fcfcfc; stroke:none;" d="M391 133L391 134L399 134L391 133z"/>
<path style="fill:#f0f0f0; stroke:none;" d="M399 133L399 141L400 141L399 133z"/>
<path style="fill:#010101; stroke:none;" d="M598 133L599 211C604.374 210.306 618.49 209.747 621.972 205.272C625.795 200.36 622.773 186.076 623.039 180C623.449 170.638 624 161.414 624 152C624 148.818 625.004 143.411 622.972 140.702C619.13 135.58 604.031 133.493 598 133z"/>
<path style="fill:#fcfcfc; stroke:none;" d="M602.667 133.333L603.333 133.667L602.667 133.333z"/>
<path style="fill:#f0f0f0; stroke:none;" d="M604.667 133.333L605.333 133.667L604.667 133.333z"/>
<path style="fill:#e4e4e4; stroke:none;" d="M606 133L607 134L606 133M661 133L661 143L662 143L661 133M375 134L376 135L375 134z"/>
<path style="fill:#f0f0f0; stroke:none;" d="M375 138L376 138L379 135L375 138z"/>
<path style="fill:#fcfcfc; stroke:none;" d="M379 134L379 135L386 135L379 134z"/>
<path style="fill:#010101; stroke:none;" d="M375 167L399 168L399 134L377.603 136.028L375.91 145L375 167z"/>
<path style="fill:#fcfcfc; stroke:none;" d="M606.667 134.333L607.333 134.667L606.667 134.333z"/>
<path style="fill:#f0f0f0; stroke:none;" d="M608 134L609 135L608 134z"/>
<path style="fill:#e4e4e4; stroke:none;" d="M609.667 134.333L610.333 134.667L609.667 134.333z"/>
<path style="fill:#f0f0f0; stroke:none;" d="M337 135L337 142L338 142L337 135z"/>
<path style="fill:#fcfcfc; stroke:none;" d="M376 135L377 136L376 135M609.667 135.333L610.333 135.667L609.667 135.333z"/>
<path style="fill:#f0f0f0; stroke:none;" d="M611 135L612 136L611 135z"/>
<path style="fill:#e4e4e4; stroke:none;" d="M612.667 135.333L613.333 135.667L612.667 135.333M114 136L115 137L114 136z"/>
<path style="fill:#fcfcfc; stroke:none;" d="M613.667 136.333L614.333 136.667L613.667 136.333z"/>
<path style="fill:#f0f0f0; stroke:none;" d="M615 136L616 137L615 136z"/>
<path style="fill:#e4e4e4; stroke:none;" d="M616.667 136.333L617.333 136.667L616.667 136.333z"/>
<path style="fill:#fcfcfc; stroke:none;" d="M616.667 137.333L617.333 137.667L616.667 137.333z"/>
<path style="fill:#f0f0f0; stroke:none;" d="M618.667 137.333L619.333 137.667L618.667 137.333z"/>
<path style="fill:#e4e4e4; stroke:none;" d="M620 137L621 138L620 137z"/>
<path style="fill:#f0f0f0; stroke:none;" d="M100 138L100 146L101 146L100 138z"/>
<path style="fill:#fcfcfc; stroke:none;" d="M174 138C174 143.074 175.717 150.942 171 154L171 155L175 155L174 138M375 138L375 149L376 149L375 138M619 138L619 139C624.365 140.973 623.996 144.882 624 150L625 150L625 139L619 138z"/>
<path style="fill:#f0f0f0; stroke:none;" d="M622 138L623 139L622 138z"/>
<path style="fill:#e4e4e4; stroke:none;" d="M623.667 138.333L624.333 138.667L623.667 138.333M209 139L209 146L210 146L209 139M40 140L40 152L41 152L40 140z"/>
<path style="fill:#f0f0f0; stroke:none;" d="M65 140L65 146L66 146L65 140z"/>
<path style="fill:#fcfcfc; stroke:none;" d="M210 141L210 152L211 152L210 141z"/>
<path style="fill:#e4e4e4; stroke:none;" d="M374 141L374 150L375 150L374 141z"/>
<path style="fill:#fcfcfc; stroke:none;" d="M399 141C399 147.631 401.994 164.114 396 168L396 169L400 169L399 141z"/>
<path style="fill:#e4e4e4; stroke:none;" d="M337 142L337 150L338 150L337 142z"/>
<path style="fill:#f0f0f0; stroke:none;" d="M661 143L661 155L662 155L661 143z"/>
<path style="fill:#fcfcfc; stroke:none;" d="M101 145L101 160L102 160L101 145M65 146L65 154L61 154L61 155L66 155L65 146z"/>
<path style="fill:#e4e4e4; stroke:none;" d="M100 146L100 155L101 155L100 146M175 146L172 155L172 156L176 156L175 146z"/>
<path style="fill:#fcfcfc; stroke:none;" d="M336 146L336 158L337 158L336 146z"/>
<path style="fill:#e4e4e4; stroke:none;" d="M209 147L209 150L210 150L209 147z"/>
<path style="fill:#f0f0f0; stroke:none;" d="M261 147L261 150L262 150L261 147M558 149L558 196L559 196C559 182.735 563.11 161.176 558 149z"/>
<path style="fill:#fcfcfc; stroke:none;" d="M261.333 150.667L261.667 151.333L261.333 150.667z"/>
<path style="fill:#f0f0f0; stroke:none;" d="M374 150L374 155L375 155L374 150z"/>
<path style="fill:#e4e4e4; stroke:none;" d="M400 150L400 167L401 167L400 150z"/>
<path style="fill:#f0f0f0; stroke:none;" d="M487 150L487 168L488 168L487 150M624 150L624 171L625 171L624 150M41 151L42 152L41 151M150 151L151 152L150 151z"/>
<path style="fill:#fcfcfc; stroke:none;" d="M222 151L222 154L223 154L222 151z"/>
<path style="fill:#e4e4e4; stroke:none;" d="M42 152L42 153L45 153L42 152z"/>
<path style="fill:#f0f0f0; stroke:none;" d="M45 152L45 153L48 153L45 152z"/>
<path style="fill:#fcfcfc; stroke:none;" d="M48 152L48 153L51 153L48 152z"/>
<path style="fill:#e4e4e4; stroke:none;" d="M151 152L151 153L154 153L151 152z"/>
<path style="fill:#f0f0f0; stroke:none;" d="M154 152L154 153L158 153L154 152z"/>
<path style="fill:#fcfcfc; stroke:none;" d="M158 152L158 153L161 153L158 152z"/>
<path style="fill:#f0f0f0; stroke:none;" d="M210 152L210 159L211 159L210 152M261 152L261 175L262 175L261 152z"/>
<path style="fill:#e4e4e4; stroke:none;" d="M49 153L49 154L52 154L49 153z"/>
<path style="fill:#f0f0f0; stroke:none;" d="M52.6667 153.333L53.3333 153.667L52.6667 153.333z"/>
<path style="fill:#fcfcfc; stroke:none;" d="M54 153L54 154L59 154L54 153z"/>
<path style="fill:#e4e4e4; stroke:none;" d="M158 153L158 154L161 154L158 153z"/>
<path style="fill:#f0f0f0; stroke:none;" d="M161 153L161 154L164 154L161 153z"/>
<path style="fill:#fcfcfc; stroke:none;" d="M164 153L164 154L168 154L164 153z"/>
<path style="fill:#e4e4e4; stroke:none;" d="M56 154L56 155L59 155L56 154z"/>
<path style="fill:#f0f0f0; stroke:none;" d="M59.6667 154.333L60.3333 154.667L59.6667 154.333z"/>
<path style="fill:#e4e4e4; stroke:none;" d="M66 154L67 155L66 154M166.667 154.333L167.333 154.667L166.667 154.333z"/>
<path style="fill:#f0f0f0; stroke:none;" d="M168 154L168 155L171 155L168 154M222 154L223 155L222 154z"/>
<path style="fill:#e4e4e4; stroke:none;" d="M63 155L63 156L66 156L63 155z"/>
<path style="fill:#fcfcfc; stroke:none;" d="M222 155L222 233L223 233L223 179L222 155M374 155L374 167L375 167L374 155M661 155L661 171L662 171L661 155z"/>
<path style="fill:#f0f0f0; stroke:none;" d="M113 158L113 163L114 163L113 158M336 158L336 166L337 166L336 158M438 158L438 177L439 177L438 158z"/>
<path style="fill:#fcfcfc; stroke:none;" d="M446 158L446 234L447 234L447 182L446 158z"/>
<path style="fill:#f0f0f0; stroke:none;" d="M597 158L597 175L598 175L597 158z"/>
<path style="fill:#e4e4e4; stroke:none;" d="M210 159L210 163L211 163L210 159M373 159L373 168L377 168L377 167L374 167L373 159z"/>
<path style="fill:#f0f0f0; stroke:none;" d="M101 160L101 163L102 163L101 160z"/>
<path style="fill:#fcfcfc; stroke:none;" d="M3 161L3 238L4 238L4 185L3 161z"/>
<path style="fill:#e4e4e4; stroke:none;" d="M660 162L660 175L661 175L660 162M100 163L101 164L100 163z"/>
<path style="fill:#fcfcfc; stroke:none;" d="M101 163L102 164L101 163M113 163L113 168L114 168L113 163z"/>
<path style="fill:#f0f0f0; stroke:none;" d="M210 163L211 164L210 163M100 164L101 165L100 164z"/>
<path style="fill:#e4e4e4; stroke:none;" d="M209 164L208 166L209 164z"/>
<path style="fill:#f0f0f0; stroke:none;" d="M99 165L100 166L99 165z"/>
<path style="fill:#fcfcfc; stroke:none;" d="M209 165L210 166L209 165z"/>
<path style="fill:#e4e4e4; stroke:none;" d="M98 166L96 169L98 166z"/>
<path style="fill:#fcfcfc; stroke:none;" d="M99 166L100 167L99 166M208 166L209 167L208 166z"/>
<path style="fill:#e4e4e4; stroke:none;" d="M336 166L336 176L337 176L336 166M4 167L4 208L5 208C5 196.304 8.51084 177.75 4 167z"/>
<path style="fill:#fcfcfc; stroke:none;" d="M98 167L99 168L98 167z"/>
<path style="fill:#f0f0f0; stroke:none;" d="M207 167L208 168L207 167z"/>
<path style="fill:#fcfcfc; stroke:none;" d="M325 167L325 225L326 225L326 186L325 167z"/>
<path style="fill:#f0f0f0; stroke:none;" d="M377 167L377 168L382 168L377 167z"/>
<path style="fill:#fcfcfc; stroke:none;" d="M382 167L382 168L389 168L382 167z"/>
<path style="fill:#f0f0f0; stroke:none;" d="M400.333 167.667L400.667 168.333L400.333 167.667z"/>
<path style="fill:#fcfcfc; stroke:none;" d="M97 168L106 179L97 168z"/>
<path style="fill:#f0f0f0; stroke:none;" d="M113 168L113 203L114 203L113 168M206 168L207 169L206 168z"/>
<path style="fill:#e4e4e4; stroke:none;" d="M386 168L386 169L392 169L386 168z"/>
<path style="fill:#f0f0f0; stroke:none;" d="M392 168L392 169L396 169L392 168z"/>
<path style="fill:#fcfcfc; stroke:none;" d="M487 168L487 172L495 172L495 171L487 168z"/>
<path style="fill:#f0f0f0; stroke:none;" d="M96 169L97 170L96 169z"/>
<path style="fill:#e4e4e4; stroke:none;" d="M205 169L206 170L205 169z"/>
<path style="fill:#fcfcfc; stroke:none;" d="M206 169L207 170L206 169z"/>
<path style="fill:#e4e4e4; stroke:none;" d="M399 169L400 170L399 169M96 170L97 171L96 170z"/>
<path style="fill:#f0f0f0; stroke:none;" d="M206 170L207 171L206 170z"/>
<path style="fill:#fcfcfc; stroke:none;" d="M502 170L502 171L509 171L502 170z"/>
<path style="fill:#f0f0f0; stroke:none;" d="M509 170L509 171L512 171L509 170z"/>
<path style="fill:#e4e4e4; stroke:none;" d="M97 171L98 172L97 171z"/>
<path style="fill:#f0f0f0; stroke:none;" d="M207 171L210 174L207 171M495 171L495 172L500 172L495 171z"/>
<path style="fill:#e4e4e4; stroke:none;" d="M500 171L500 172L506 172L500 171M624 171L624 192L625 192L624 171M98 172L99 173L98 172M207 172L208 173L207 172M487 172L487 173L493 173L487 172M99 173L100 174L99 173M208 173L209 174L208 173z"/>
<path style="fill:#fcfcfc; stroke:none;" d="M439 173L439 208L440 208L439 173z"/>
<path style="fill:#e4e4e4; stroke:none;" d="M96 174L97 175L96 174M100 174L101 175L100 174z"/>
<path style="fill:#fcfcfc; stroke:none;" d="M210 174L215 179L210 174z"/>
<path style="fill:#e4e4e4; stroke:none;" d="M101 175L102 176L101 175M210 175L211 176L210 175M261 175L261 179L262 179L261 175z"/>
<path style="fill:#fcfcfc; stroke:none;" d="M335 175L335 181L336 181L335 175z"/>
<path style="fill:#e4e4e4; stroke:none;" d="M597 175L597 198L598 198L597 175z"/>
<path style="fill:#fcfcfc; stroke:none;" d="M623 175L623 204L624 204L623 175z"/>
<path style="fill:#f0f0f0; stroke:none;" d="M660 175L660 189L661 189L660 175M102 176L103 177L102 176z"/>
<path style="fill:#e4e4e4; stroke:none;" d="M211 176L212 177L211 176z"/>
<path style="fill:#f0f0f0; stroke:none;" d="M103 177L104 178L103 177z"/>
<path style="fill:#e4e4e4; stroke:none;" d="M212 177L213 178L212 177M438 177L438 196L439 196L438 177z"/>
<path style="fill:#f0f0f0; stroke:none;" d="M41 178L41 179L44 179L41 178z"/>
<path style="fill:#e4e4e4; stroke:none;" d="M44 178L44 179L47 179L44 178z"/>
<path style="fill:#f0f0f0; stroke:none;" d="M104 178L105 179L104 178z"/>
<path style="fill:#e4e4e4; stroke:none;" d="M150 178L151 179L150 178z"/>
<path style="fill:#f0f0f0; stroke:none;" d="M153 213L153 212C149.162 206.934 148.448 182.6 154 179C149.778 178.052 150.023 182.832 150.001 186C149.955 192.579 147.044 209.139 153 213z"/>
<path style="fill:#e4e4e4; stroke:none;" d="M154.667 178.333L155.333 178.667L154.667 178.333M213 178L214 179L213 178z"/>
<path style="fill:#fcfcfc; stroke:none;" d="M41 179L41 212L47 212L47 211L42 211L43 179L41 179z"/>
<path style="fill:#010101; stroke:none;" d="M43 179L42 211C47.4173 210.888 63.4832 210.987 66.9722 206.411C70.4763 201.815 69 188.661 69 183L43 179z"/>
<path style="fill:#fcfcfc; stroke:none;" d="M45 179L45 180L48 180L45 179z"/>
<path style="fill:#f0f0f0; stroke:none;" d="M48.6667 179.333L49.3333 179.667L48.6667 179.333z"/>
<path style="fill:#e4e4e4; stroke:none;" d="M50 179L50 180L53 180L50 179z"/>
<path style="fill:#f0f0f0; stroke:none;" d="M105 179L106 180L105 179z"/>
<path style="fill:#fcfcfc; stroke:none;" d="M151 179L152 180L151 179z"/>
<path style="fill:#010101; stroke:none;" d="M152 179L151 211C156.76 210.881 172.089 210.994 176.062 206.411C180.309 201.511 178 189.066 178 183L152 179z"/>
<path style="fill:#fcfcfc; stroke:none;" d="M154 179L154 180L158 180L154 179z"/>
<path style="fill:#f0f0f0; stroke:none;" d="M158.667 179.333L159.333 179.667L158.667 179.333z"/>
<path style="fill:#e4e4e4; stroke:none;" d="M160.667 179.333L161.333 179.667L160.667 179.333M214 179L214 208L215 208L214 179z"/>
<path style="fill:#f0f0f0; stroke:none;" d="M261 179L262 180L261 179z"/>
<path style="fill:#fcfcfc; stroke:none;" d="M598 179L598 212L606 211L606 210L599 211L598 179M53 180L54 181L53 180z"/>
<path style="fill:#f0f0f0; stroke:none;" d="M54.6667 180.333L55.3333 180.667L54.6667 180.333z"/>
<path style="fill:#e4e4e4; stroke:none;" d="M56 180L56 181L59 181L56 180M105 180L105 188L106 188L105 180z"/>
<path style="fill:#fcfcfc; stroke:none;" d="M162.667 180.333L163.333 180.667L162.667 180.333z"/>
<path style="fill:#f0f0f0; stroke:none;" d="M164.667 180.333L165.333 180.667L164.667 180.333z"/>
<path style="fill:#e4e4e4; stroke:none;" d="M166.667 180.333L167.333 180.667L166.667 180.333z"/>
<path style="fill:#fcfcfc; stroke:none;" d="M215 180L215 222L216 222C216 210.043 219.611 190.988 215 180z"/>
<path style="fill:#e4e4e4; stroke:none;" d="M261 180C261 187.918 256.788 211.204 267 212L267 211L262 211L261 180z"/>
<path style="fill:#fcfcfc; stroke:none;" d="M59 181L60 182L59 181z"/>
<path style="fill:#f0f0f0; stroke:none;" d="M60.6667 181.333L61.3333 181.667L60.6667 181.333z"/>
<path style="fill:#e4e4e4; stroke:none;" d="M62 181L62 182L65 182L62 181z"/>
<path style="fill:#fcfcfc; stroke:none;" d="M106 181L106 205L107 205L106 181M168 181L169 182L168 181z"/>
<path style="fill:#f0f0f0; stroke:none;" d="M169 181L169 182L172 182L169 181z"/>
<path style="fill:#e4e4e4; stroke:none;" d="M172 181L172 182L175 182L172 181z"/>
<path style="fill:#f0f0f0; stroke:none;" d="M335 181L335 189L336 189L335 181z"/>
<path style="fill:#fcfcfc; stroke:none;" d="M65 182L66 183L65 182z"/>
<path style="fill:#f0f0f0; stroke:none;" d="M66 182L66 183L69 183L66 182z"/>
<path style="fill:#e4e4e4; stroke:none;" d="M69 182L70 186L71 186L69 182z"/>
<path style="fill:#f0f0f0; stroke:none;" d="M175.667 182.333L176.333 182.667L175.667 182.333z"/>
<path style="fill:#e4e4e4; stroke:none;" d="M177 182L177 183L180 183L177 182z"/>
<path style="fill:#fcfcfc; stroke:none;" d="M69 183L69 192L70 192L69 183M178 183L178 196L179 196L178 183z"/>
<path style="fill:#f0f0f0; stroke:none;" d="M179.333 183.667L179.667 184.333L179.333 183.667z"/>
<path style="fill:#e4e4e4; stroke:none;" d="M179 185L179 191L180 191L179 185M324 187L324 229L325 229C325 217.043 328.611 197.988 324 187z"/>
<path style="fill:#f0f0f0; stroke:none;" d="M105 188L105 209L106 209L105 188z"/>
<path style="fill:#e4e4e4; stroke:none;" d="M223 188L223 191L224 191L223 188M335 189L335 198L336 198L335 189z"/>
<path style="fill:#f0f0f0; stroke:none;" d="M550 189L551 190L550 189z"/>
<path style="fill:#fcfcfc; stroke:none;" d="M660 189L660 210L661 210L660 189z"/>
<path style="fill:#e4e4e4; stroke:none;" d="M549 190L550 191L549 190z"/>
<path style="fill:#fcfcfc; stroke:none;" d="M550 190L551 191L550 190z"/>
<path style="fill:#f0f0f0; stroke:none;" d="M549 191L550 192L549 191M69 192L69 196L70 196L69 192z"/>
<path style="fill:#e4e4e4; stroke:none;" d="M223 192L223 196L224 196L223 192z"/>
<path style="fill:#fcfcfc; stroke:none;" d="M262 192L262 211L267 211L267 210L263 210L262 192z"/>
<path style="fill:#e4e4e4; stroke:none;" d="M548 192L549 193L548 192z"/>
<path style="fill:#fcfcfc; stroke:none;" d="M548 193L549 194L548 193z"/>
<path style="fill:#f0f0f0; stroke:none;" d="M547 194L548 195L547 194z"/>
<path style="fill:#fcfcfc; stroke:none;" d="M68 195L67 208C70.1561 205.242 69.5304 198.647 68 195z"/>
<path style="fill:#e4e4e4; stroke:none;" d="M546 195L547 196L546 195z"/>
<path style="fill:#fcfcfc; stroke:none;" d="M547 195L548 196L547 195z"/>
<path style="fill:#e4e4e4; stroke:none;" d="M69 196L69 206L70 206L69 196z"/>
<path style="fill:#f0f0f0; stroke:none;" d="M178 196L178 204L179 204L178 196z"/>
<path style="fill:#fcfcfc; stroke:none;" d="M334 196L334 206L335 206L334 196z"/>
<path style="fill:#f0f0f0; stroke:none;" d="M546 196L547 197L546 196z"/>
<path style="fill:#e4e4e4; stroke:none;" d="M558 196L558 242L559 242C559 228.997 563.01 207.939 558 196M659 196L659 209L660 209L659 196M385 197L385 198L391 198L385 197z"/>
<path style="fill:#f0f0f0; stroke:none;" d="M391 197L391 198L397 198L391 197z"/>
<path style="fill:#fcfcfc; stroke:none;" d="M397 197L397 198L400 198L397 197z"/>
<path style="fill:#f0f0f0; stroke:none;" d="M400 197L400 200L401 200L400 197z"/>
<path style="fill:#e4e4e4; stroke:none;" d="M545 197L546 198L545 197z"/>
<path style="fill:#fcfcfc; stroke:none;" d="M546 197L547 198L546 197z"/>
<path style="fill:#e4e4e4; stroke:none;" d="M372 198L372 199L376 199L372 198z"/>
<path style="fill:#f0f0f0; stroke:none;" d="M376 198L376 199L381 199L376 198z"/>
<path style="fill:#fcfcfc; stroke:none;" d="M381 198L381 199L387 199L381 198z"/>
<path style="fill:#f0f0f0; stroke:none;" d="M545 198L546 199L545 198M371 199L371 204L372 204L371 199z"/>
<path style="fill:#fcfcfc; stroke:none;" d="M372 199L372 201L374 199L372 199z"/>
<path style="fill:#e4e4e4; stroke:none;" d="M544 199L545 200L544 199M223 200L224 236L225 236L223 200z"/>
<path style="fill:#fcfcfc; stroke:none;" d="M400 200L400 226L401 226L400 200z"/>
<path style="fill:#e4e4e4; stroke:none;" d="M543 200L544 201L543 200M537 201L537 202L542 202L537 201z"/>
<path style="fill:#f0f0f0; stroke:none;" d="M542 201L543 202L542 201M534 204L537 203L534 204z"/>
<path style="fill:#fcfcfc; stroke:none;" d="M537 202L537 203L540 203L537 202z"/>
<path style="fill:#e4e4e4; stroke:none;" d="M113 203L114 243L115 243L113 203z"/>
<path style="fill:#fcfcfc; stroke:none;" d="M177 203L176 208L177 203M535.333 203.667L535.667 204.333L535.333 203.667M112 204L112 241L113 241C113 230.351 116.111 213.798 112 204z"/>
<path style="fill:#e4e4e4; stroke:none;" d="M178 204L178 208L179 208L178 204z"/>
<path style="fill:#f0f0f0; stroke:none;" d="M286 204L286 211L287 211L286 204z"/>
<path style="fill:#fcfcfc; stroke:none;" d="M371 204L371 214L372 214L371 204z"/>
<path style="fill:#f0f0f0; stroke:none;" d="M623 204L623 207L624 207L623 204M486 205L486 206L492 206L486 205z"/>
<path style="fill:#fcfcfc; stroke:none;" d="M492 205L492 206L496 207L496 206L492 205z"/>
<path style="fill:#e4e4e4; stroke:none;" d="M495 205L496 206L495 205z"/>
<path style="fill:#f0f0f0; stroke:none;" d="M535 205L536 206L535 205M334 206L334 213L335 213L334 206z"/>
<path style="fill:#e4e4e4; stroke:none;" d="M370 206L370 212L371 212L370 206z"/>
<path style="fill:#fcfcfc; stroke:none;" d="M486 206L486 219L487 219L488 206L486 206z"/>
<path style="fill:#e4e4e4; stroke:none;" d="M496 206L497 207L496 206M535 206L536 207L535 206z"/>
<path style="fill:#fcfcfc; stroke:none;" d="M536 206L537 207L536 206M621.667 206.333L622.333 206.667L621.667 206.333z"/>
<path style="fill:#f0f0f0; stroke:none;" d="M496 207L497 208L496 207M536 207L537 208L536 207z"/>
<path style="fill:#fcfcfc; stroke:none;" d="M617 207L617 208L620 208L617 207z"/>
<path style="fill:#f0f0f0; stroke:none;" d="M620 207L621 208L620 207z"/>
<path style="fill:#e4e4e4; stroke:none;" d="M621.667 207.333L622.333 207.667L621.667 207.333z"/>
<path style="fill:#fcfcfc; stroke:none;" d="M62 208L62 209L66 209L62 208z"/>
<path style="fill:#f0f0f0; stroke:none;" d="M66.6667 208.333L67.3333 208.667L66.6667 208.333z"/>
<path style="fill:#e4e4e4; stroke:none;" d="M68 208L69 209L68 208z"/>
<path style="fill:#fcfcfc; stroke:none;" d="M171 208L171 209L175 209L171 208z"/>
<path style="fill:#f0f0f0; stroke:none;" d="M175 208L175 209L178 209L175 208M214 208L214 224L215 224L214 208M439 208L439 224L440 224L439 208z"/>
<path style="fill:#e4e4e4; stroke:none;" d="M485 208L485 217L486 217L485 208z"/>
<path style="fill:#fcfcfc; stroke:none;" d="M496 208L497 209L496 208z"/>
<path style="fill:#e4e4e4; stroke:none;" d="M536 208L537 209L536 208z"/>
<path style="fill:#fcfcfc; stroke:none;" d="M537 208L538 209L537 208M612 208L612 209L615 209L612 208z"/>
<path style="fill:#f0f0f0; stroke:none;" d="M615 208L616 209L615 208z"/>
<path style="fill:#e4e4e4; stroke:none;" d="M616 208L616 209L619 209L616 208z"/>
<path style="fill:#fcfcfc; stroke:none;" d="M55 209L55 210L60 210L55 209z"/>
<path style="fill:#f0f0f0; stroke:none;" d="M60.6667 209.333L61.3333 209.667L60.6667 209.333z"/>
<path style="fill:#e4e4e4; stroke:none;" d="M62 209L62 210L65 210L62 209z"/>
<path style="fill:#fcfcfc; stroke:none;" d="M105 209L105 229L106 229L105 209M164 209L164 210L169 210L164 209z"/>
<path style="fill:#f0f0f0; stroke:none;" d="M169 209L169 210L172 210L169 209z"/>
<path style="fill:#e4e4e4; stroke:none;" d="M172 209L173 210L172 209z"/>
<path style="fill:#f0f0f0; stroke:none;" d="M497 209L498 210L497 209M537 209L538 210L537 209z"/>
<path style="fill:#fcfcfc; stroke:none;" d="M607 209L607 210L610 210L607 209z"/>
<path style="fill:#f0f0f0; stroke:none;" d="M610.667 209.333L611.333 209.667L610.667 209.333z"/>
<path style="fill:#e4e4e4; stroke:none;" d="M612.667 209.333L613.333 209.667L612.667 209.333z"/>
<path style="fill:#f0f0f0; stroke:none;" d="M659 209L659 221L660 221L659 209z"/>
<path style="fill:#fcfcfc; stroke:none;" d="M48 210L48 211L53 211L48 210z"/>
<path style="fill:#f0f0f0; stroke:none;" d="M53.6667 210.333L54.3333 210.667L53.6667 210.333z"/>
<path style="fill:#e4e4e4; stroke:none;" d="M55 210L55 211L58 211L55 210z"/>
<path style="fill:#fcfcfc; stroke:none;" d="M157 210L157 211L163 211L157 210z"/>
<path style="fill:#f0f0f0; stroke:none;" d="M163.667 210.333L164.333 210.667L163.667 210.333z"/>
<path style="fill:#e4e4e4; stroke:none;" d="M165 210L165 211L168 211L165 210z"/>
<path style="fill:#fcfcfc; stroke:none;" d="M497 210L498 211L497 210z"/>
<path style="fill:#e4e4e4; stroke:none;" d="M498 210L499 211L498 210M537 210L538 211L537 210z"/>
<path style="fill:#fcfcfc; stroke:none;" d="M538 210L539 211L538 210z"/>
<path style="fill:#f0f0f0; stroke:none;" d="M606.667 210.333L607.333 210.667L606.667 210.333z"/>
<path style="fill:#e4e4e4; stroke:none;" d="M608.667 210.333L609.333 210.667L608.667 210.333z"/>
<path style="fill:#f0f0f0; stroke:none;" d="M47.6667 211.333L48.3333 211.667L47.6667 211.333z"/>
<path style="fill:#e4e4e4; stroke:none;" d="M49 211L49 212L52 212L49 211z"/>
<path style="fill:#fcfcfc; stroke:none;" d="M151 211L151 212L156 212L151 211z"/>
<path style="fill:#f0f0f0; stroke:none;" d="M156.667 211.333L157.333 211.667L156.667 211.333z"/>
<path style="fill:#e4e4e4; stroke:none;" d="M158 211L158 212L161 212L158 211z"/>
<path style="fill:#f0f0f0; stroke:none;" d="M267 211L267 212L274 212L267 211z"/>
<path style="fill:#fcfcfc; stroke:none;" d="M274 211L274 212L282 212L274 211M285.667 211.333L286.333 211.667L285.667 211.333z"/>
<path style="fill:#e4e4e4; stroke:none;" d="M401 211L401 229L402 229L401 211z"/>
<path style="fill:#f0f0f0; stroke:none;" d="M498 211L499 212L498 211M538 211L539 212L538 211M602.667 211.333L603.333 211.667L602.667 211.333z"/>
<path style="fill:#e4e4e4; stroke:none;" d="M604 211L605 212L604 211z"/>
<path style="fill:#f0f0f0; stroke:none;" d="M41.6667 212.333L42.3333 212.667L41.6667 212.333z"/>
<path style="fill:#e4e4e4; stroke:none;" d="M43 212L43 213L46 213L43 212M150 212L151 213L150 212M153.667 212.333L154.333 212.667L153.667 212.333M275 212L275 213L282 213L275 212z"/>
<path style="fill:#f0f0f0; stroke:none;" d="M282 212L282 213L287 213L282 212M370 212L370 218L371 218L370 212z"/>
<path style="fill:#fcfcfc; stroke:none;" d="M498 212L500 214L498 212z"/>
<path style="fill:#e4e4e4; stroke:none;" d="M499 212L500 213L499 212M538 212L539 213L538 212z"/>
<path style="fill:#fcfcfc; stroke:none;" d="M539 212L540 213L539 212z"/>
<path style="fill:#e4e4e4; stroke:none;" d="M598 212L598 213L601 213L598 212M334 213L334 221L335 221L334 213z"/>
<path style="fill:#f0f0f0; stroke:none;" d="M539 213L540 214L539 213M500 214L501 215L500 214z"/>
<path style="fill:#e4e4e4; stroke:none;" d="M539 214L540 215L539 214z"/>
<path style="fill:#fcfcfc; stroke:none;" d="M540 214L541 215L540 214M500 215L501 216L500 215z"/>
<path style="fill:#f0f0f0; stroke:none;" d="M540 215L541 216L540 215z"/>
<path style="fill:#e4e4e4; stroke:none;" d="M501 216L503 218L501 216M540 216L541 217L540 216z"/>
<path style="fill:#fcfcfc; stroke:none;" d="M541 216L542 217L541 216z"/>
<path style="fill:#f0f0f0; stroke:none;" d="M485 217L485 225L486 225L485 217z"/>
<path style="fill:#fcfcfc; stroke:none;" d="M501 217L502 218L501 217z"/>
<path style="fill:#f0f0f0; stroke:none;" d="M541 217L542 218L541 217z"/>
<path style="fill:#fcfcfc; stroke:none;" d="M370 218L370 225L371 225L370 218z"/>
<path style="fill:#f0f0f0; stroke:none;" d="M502 218L503 219L502 218z"/>
<path style="fill:#e4e4e4; stroke:none;" d="M541 218L542 219L541 218z"/>
<path style="fill:#fcfcfc; stroke:none;" d="M542 218L543 219L542 218M557 218L557 241L558 241L557 218M333 219L333 228L334 228L333 219M502 219L503 220L502 219z"/>
<path style="fill:#e4e4e4; stroke:none;" d="M503 219L504 220L503 219z"/>
<path style="fill:#f0f0f0; stroke:none;" d="M542 219L543 220L542 219z"/>
<path style="fill:#e4e4e4; stroke:none;" d="M104 220L104 230L105 230L104 220z"/>
<path style="fill:#f0f0f0; stroke:none;" d="M503 220L504 221L503 220z"/>
<path style="fill:#e4e4e4; stroke:none;" d="M542 220L543 221L542 220z"/>
<path style="fill:#fcfcfc; stroke:none;" d="M543 220L544 221L543 220M503 221L504 222L503 221z"/>
<path style="fill:#e4e4e4; stroke:none;" d="M504 221L505 222L504 221z"/>
<path style="fill:#f0f0f0; stroke:none;" d="M543 221L544 222L543 221z"/>
<path style="fill:#fcfcfc; stroke:none;" d="M659.333 221.667L659.667 222.333L659.333 221.667z"/>
<path style="fill:#e4e4e4; stroke:none;" d="M369 222L369 228L370 228L369 222z"/>
<path style="fill:#f0f0f0; stroke:none;" d="M504 222L505 223L504 222z"/>
<path style="fill:#e4e4e4; stroke:none;" d="M543 222L544 223L543 222z"/>
<path style="fill:#fcfcfc; stroke:none;" d="M544 222L545 223L544 222M504 223L505 224L504 223z"/>
<path style="fill:#e4e4e4; stroke:none;" d="M505 223L506 224L505 223z"/>
<path style="fill:#f0f0f0; stroke:none;" d="M544 223L545 224L544 223z"/>
<path style="fill:#fcfcfc; stroke:none;" d="M214 224L214 229L215 229L214 224z"/>
<path style="fill:#e4e4e4; stroke:none;" d="M439 224L439 242L440 242L439 224z"/>
<path style="fill:#f0f0f0; stroke:none;" d="M505 224L506 225L505 224z"/>
<path style="fill:#e4e4e4; stroke:none;" d="M544 224L545 225L544 224z"/>
<path style="fill:#fcfcfc; stroke:none;" d="M545 224L546 225L545 224z"/>
<path style="fill:#f0f0f0; stroke:none;" d="M658 224L659 225L658 224z"/>
<path style="fill:#fcfcfc; stroke:none;" d="M485 225L485 235L486 235L485 225z"/>
<path style="fill:#e4e4e4; stroke:none;" d="M506 225L507 226L506 225z"/>
<path style="fill:#f0f0f0; stroke:none;" d="M545 225L546 226L545 225M657 225L658 226L657 225M506 226L507 227L506 226z"/>
<path style="fill:#e4e4e4; stroke:none;" d="M545 226L546 227L545 226M656 226L653 230L656 226z"/>
<path style="fill:#f0f0f0; stroke:none;" d="M507 227L508 228L507 227M546 227L547 228L546 227z"/>
<path style="fill:#fcfcfc; stroke:none;" d="M656 227L657 228L656 227z"/>
<path style="fill:#f0f0f0; stroke:none;" d="M333 228L333 237L334 237L333 228M369 228L369 231L370 231L369 228z"/>
<path style="fill:#e4e4e4; stroke:none;" d="M484 228L484 238L479 238L479 239C485.238 238.514 486.237 233.33 484 228z"/>
<path style="fill:#fcfcfc; stroke:none;" d="M507 228L508 229L507 228z"/>
<path style="fill:#e4e4e4; stroke:none;" d="M508 228L509 229L508 228M546 228L547 229L546 228z"/>
<path style="fill:#fcfcfc; stroke:none;" d="M655 228L656 229L655 228z"/>
<path style="fill:#f0f0f0; stroke:none;" d="M214 229L215 230L214 229M324 229L325 230L324 229M401 229L402 243L403 243L401 229M508 229L509 230L508 229M546 229L547 230L546 229z"/>
<path style="fill:#fcfcfc; stroke:none;" d="M654 229L655 230L654 229z"/>
<path style="fill:#f0f0f0; stroke:none;" d="M104 230L105 231L104 230z"/>
<path style="fill:#e4e4e4; stroke:none;" d="M213 230L214 231L213 230M323 230L324 231L323 230z"/>
<path style="fill:#fcfcfc; stroke:none;" d="M324 230L325 231L324 230M508 230L509 231L508 230z"/>
<path style="fill:#e4e4e4; stroke:none;" d="M509 230L510 231L509 230M545 230L546 231L545 230z"/>
<path style="fill:#fcfcfc; stroke:none;" d="M546 230L547 231L546 230z"/>
<path style="fill:#f0f0f0; stroke:none;" d="M653 230L654 231L653 230z"/>
<path style="fill:#e4e4e4; stroke:none;" d="M102 231L101 233L102 231z"/>
<path style="fill:#f0f0f0; stroke:none;" d="M103 231L104 232L103 231M212 231L213 232L212 231z"/>
<path style="fill:#fcfcfc; stroke:none;" d="M213 231L214 232L213 231z"/>
<path style="fill:#f0f0f0; stroke:none;" d="M323 231L324 232L323 231z"/>
<path style="fill:#fcfcfc; stroke:none;" d="M369 231L369 239L370 239L369 231z"/>
<path style="fill:#f0f0f0; stroke:none;" d="M509 231L510 232L509 231M545 231L546 232L545 231M652 231L651 233L652 231z"/>
<path style="fill:#fcfcfc; stroke:none;" d="M102 232L103 233L102 232z"/>
<path style="fill:#e4e4e4; stroke:none;" d="M210 232L208 235L210 232z"/>
<path style="fill:#f0f0f0; stroke:none;" d="M211 232L212 233L211 232z"/>
<path style="fill:#e4e4e4; stroke:none;" d="M322 232L323 233L322 232z"/>
<path style="fill:#fcfcfc; stroke:none;" d="M323 232L324 233L323 232z"/>
<path style="fill:#e4e4e4; stroke:none;" d="M510 232L511 233L510 232M544 232L545 233L544 232z"/>
<path style="fill:#fcfcfc; stroke:none;" d="M545 232L546 233L545 232M652 232L653 233L652 232z"/>
<path style="fill:#f0f0f0; stroke:none;" d="M100 233L99 235L100 233z"/>
<path style="fill:#fcfcfc; stroke:none;" d="M101 233L102 234L101 233M210 233L211 234L210 233M322 233L321 236L322 233z"/>
<path style="fill:#f0f0f0; stroke:none;" d="M510 233L511 234L510 233M544 233L545 234L544 233z"/>
<path style="fill:#e4e4e4; stroke:none;" d="M650 233L648 236L650 233z"/>
<path style="fill:#fcfcfc; stroke:none;" d="M651 233L652 234L651 233z"/>
<path style="fill:#e4e4e4; stroke:none;" d="M98 234L96 237L98 234z"/>
<path style="fill:#fcfcfc; stroke:none;" d="M100 234L101 235L100 234M209 234L210 235L209 234z"/>
<path style="fill:#e4e4e4; stroke:none;" d="M321 234L322 235L321 234M511 234L512 235L511 234M543 234L544 235L543 234z"/>
<path style="fill:#fcfcfc; stroke:none;" d="M650 234L651 235L650 234M98 235L99 236L98 235z"/>
<path style="fill:#e4e4e4; stroke:none;" d="M206 235L201 239L201 240L206 235z"/>
<path style="fill:#f0f0f0; stroke:none;" d="M207 235L208 236L207 235z"/>
<path style="fill:#fcfcfc; stroke:none;" d="M208 235L209 236L208 235z"/>
<path style="fill:#f0f0f0; stroke:none;" d="M223 235L224 236L223 235z"/>
<path style="fill:#fcfcfc; stroke:none;" d="M511 235L512 236L511 235z"/>
<path style="fill:#e4e4e4; stroke:none;" d="M539.667 235.333L540.333 235.667L539.667 235.333z"/>
<path style="fill:#f0f0f0; stroke:none;" d="M541.667 235.333L542.333 235.667L541.667 235.333z"/>
<path style="fill:#fcfcfc; stroke:none;" d="M649 235L650 236L649 235M97 236L98 237L97 236z"/>
<path style="fill:#f0f0f0; stroke:none;" d="M206 236L207 237L206 236z"/>
<path style="fill:#fcfcfc; stroke:none;" d="M224 236L225 237L224 236z"/>
<path style="fill:#f0f0f0; stroke:none;" d="M225 236L226 237L225 236M320 236L321 237L320 236z"/>
<path style="fill:#e4e4e4; stroke:none;" d="M368 236L368 241L358 241L358 242C362.467 242 370.564 242.748 368 236M512 236L513 237L512 236M536.667 236.333L537.333 236.667L536.667 236.333z"/>
<path style="fill:#f0f0f0; stroke:none;" d="M538 236L539 237L538 236z"/>
<path style="fill:#fcfcfc; stroke:none;" d="M539 236L540 237L539 236z"/>
<path style="fill:#f0f0f0; stroke:none;" d="M648 236L649 237L648 236M95 237L96 238L95 237z"/>
<path style="fill:#fcfcfc; stroke:none;" d="M96 237L97 238L96 237M205 237L206 238L205 237z"/>
<path style="fill:#f0f0f0; stroke:none;" d="M226 237L227 238L226 237z"/>
<path style="fill:#e4e4e4; stroke:none;" d="M227 237L228 238L227 237z"/>
<path style="fill:#fcfcfc; stroke:none;" d="M320 237L321 238L320 237z"/>
<path style="fill:#e4e4e4; stroke:none;" d="M333 237L333 242L334 242L333 237z"/>
<path style="fill:#fcfcfc; stroke:none;" d="M512 237L513 238L512 237z"/>
<path style="fill:#e4e4e4; stroke:none;" d="M532.667 237.333L533.333 237.667L532.667 237.333z"/>
<path style="fill:#f0f0f0; stroke:none;" d="M534 237L535 238L534 237z"/>
<path style="fill:#fcfcfc; stroke:none;" d="M535.667 237.333L536.333 237.667L535.667 237.333z"/>
<path style="fill:#f0f0f0; stroke:none;" d="M647 237L648 238L647 237M3 238L3 242L4 242L3 238M94 238L95 239L94 238z"/>
<path style="fill:#fcfcfc; stroke:none;" d="M204 238L205 239L204 238M227 238L228 239L227 238z"/>
<path style="fill:#f0f0f0; stroke:none;" d="M228 238L229 239L228 238z"/>
<path style="fill:#e4e4e4; stroke:none;" d="M229 238L231 240L229 238M319 238L320 239L319 238z"/>
<path style="fill:#f0f0f0; stroke:none;" d="M484 238L485 239L484 238M513 238L514 239L513 238z"/>
<path style="fill:#e4e4e4; stroke:none;" d="M529 238L530 239L529 238z"/>
<path style="fill:#f0f0f0; stroke:none;" d="M530 238L531 239L530 238z"/>
<path style="fill:#fcfcfc; stroke:none;" d="M531.667 238.333L532.333 238.667L531.667 238.333z"/>
<path style="fill:#f0f0f0; stroke:none;" d="M646 238L647 239L646 238z"/>
<path style="fill:#e4e4e4; stroke:none;" d="M92 239L93 240L92 239z"/>
<path style="fill:#fcfcfc; stroke:none;" d="M93 239L94 240L93 239z"/>
<path style="fill:#f0f0f0; stroke:none;" d="M202 239L203 240L202 239z"/>
<path style="fill:#fcfcfc; stroke:none;" d="M229 239L230 240L229 239M319 239L320 240L319 239z"/>
<path style="fill:#e4e4e4; stroke:none;" d="M469 239L469 240L473 240L469 239z"/>
<path style="fill:#f0f0f0; stroke:none;" d="M473 239L473 240L477 240L473 239z"/>
<path style="fill:#fcfcfc; stroke:none;" d="M477 239L477 240L483 240L477 239M513 239L514 240L513 239z"/>
<path style="fill:#e4e4e4; stroke:none;" d="M524.667 239.333L525.333 239.667L524.667 239.333z"/>
<path style="fill:#f0f0f0; stroke:none;" d="M526.667 239.333L527.333 239.667L526.667 239.333z"/>
<path style="fill:#e4e4e4; stroke:none;" d="M645 239L646 240L645 239M70.6667 240.333L71.3333 240.667L70.6667 240.333M75 240L75 241L86 241L75 240z"/>
<path style="fill:#f0f0f0; stroke:none;" d="M86 240L86 241L92 241L86 240z"/>
<path style="fill:#e4e4e4; stroke:none;" d="M182 240L182 241L195 241L182 240z"/>
<path style="fill:#f0f0f0; stroke:none;" d="M195 240L196 241L195 240z"/>
<path style="fill:#e4e4e4; stroke:none;" d="M196 240L197 241L196 240z"/>
<path style="fill:#f0f0f0; stroke:none;" d="M197 240L197 241L201 241L197 240z"/>
<path style="fill:#fcfcfc; stroke:none;" d="M231 240L233 242L231 240z"/>
<path style="fill:#e4e4e4; stroke:none;" d="M232 240L233 241L232 240z"/>
<path style="fill:#f0f0f0; stroke:none;" d="M318 240L319 241L318 240z"/>
<path style="fill:#e4e4e4; stroke:none;" d="M458 240L458 241L462 241L458 240z"/>
<path style="fill:#f0f0f0; stroke:none;" d="M462 240L462 241L466 241L462 240z"/>
<path style="fill:#fcfcfc; stroke:none;" d="M466 240L466 241L471 241L466 240z"/>
<path style="fill:#f0f0f0; stroke:none;" d="M514 240L515 241L514 240z"/>
<path style="fill:#e4e4e4; stroke:none;" d="M521 240L522 241L521 240z"/>
<path style="fill:#f0f0f0; stroke:none;" d="M522.667 240.333L523.333 240.667L522.667 240.333z"/>
<path style="fill:#fcfcfc; stroke:none;" d="M524 240L525 241L524 240z"/>
<path style="fill:#e4e4e4; stroke:none;" d="M623 240L624 241L623 240M626 240L626 241L642 241L626 240z"/>
<path style="fill:#f0f0f0; stroke:none;" d="M642 240L642 241L645 241L642 240z"/>
<path style="fill:#e4e4e4; stroke:none;" d="M33 241L33 242L50 242L33 241z"/>
<path style="fill:#f0f0f0; stroke:none;" d="M50 241L50 242L66 242L50 241z"/>
<path style="fill:#fcfcfc; stroke:none;" d="M66 241L66 242L83 242L66 241M84 241L85 242L84 241z"/>
<path style="fill:#e4e4e4; stroke:none;" d="M142 241L142 242L158 242L142 241z"/>
<path style="fill:#f0f0f0; stroke:none;" d="M158 241L158 242L171 242L158 241z"/>
<path style="fill:#fcfcfc; stroke:none;" d="M171 241L171 242L190 242L171 241z"/>
<path style="fill:#f0f0f0; stroke:none;" d="M233 241L234 242L233 241z"/>
<path style="fill:#e4e4e4; stroke:none;" d="M234 241L235 242L234 241M308 241L308 242L318 242L308 241z"/>
<path style="fill:#fcfcfc; stroke:none;" d="M318 241L319 242L318 241z"/>
<path style="fill:#f0f0f0; stroke:none;" d="M368 241L369 242L368 241M449 241L449 242L455 242L449 241z"/>
<path style="fill:#e4e4e4; stroke:none;" d="M515 241L516 242L515 241M517 241L518 242L517 241z"/>
<path style="fill:#f0f0f0; stroke:none;" d="M518.667 241.333L519.333 241.667L518.667 241.333z"/>
<path style="fill:#fcfcfc; stroke:none;" d="M520 241L521 242L520 241z"/>
<path style="fill:#e4e4e4; stroke:none;" d="M582 241L582 242L599 242L582 241z"/>
<path style="fill:#f0f0f0; stroke:none;" d="M599 241L599 242L616 242L599 241z"/>
<path style="fill:#fcfcfc; stroke:none;" d="M616 241L616 242L630 242L616 241z"/>
<path style="fill:#e4e4e4; stroke:none;" d="M4 242L4 243L9 243L4 242z"/>
<path style="fill:#f0f0f0; stroke:none;" d="M9 242L9 243L25 243L9 242z"/>
<path style="fill:#fcfcfc; stroke:none;" d="M25 242L25 243L45 243L25 242z"/>
<path style="fill:#f0f0f0; stroke:none;" d="M113 242L114 243L113 242M115 242L116 243L115 242z"/>
<path style="fill:#e4e4e4; stroke:none;" d="M116 242L117 243L116 242z"/>
<path style="fill:#f0f0f0; stroke:none;" d="M117 242L117 243L133 243L117 242z"/>
<path style="fill:#fcfcfc; stroke:none;" d="M133 242L133 243L150 243L133 242z"/>
<path style="fill:#f0f0f0; stroke:none;" d="M235 242L235 243L283 243C270.586 237.791 248.526 242 235 242z"/>
<path style="fill:#fcfcfc; stroke:none;" d="M283 242L283 243L316 243L283 242z"/>
<path style="fill:#f0f0f0; stroke:none;" d="M334 242L334 243L349 243L334 242z"/>
<path style="fill:#fcfcfc; stroke:none;" d="M349 242L349 243L367 243L349 242M401 242L402 243L401 242z"/>
<path style="fill:#e4e4e4; stroke:none;" d="M403.667 242.333L404.333 242.667L403.667 242.333z"/>
<path style="fill:#f0f0f0; stroke:none;" d="M405 242L405 243L426 243L405 242z"/>
<path style="fill:#fcfcfc; stroke:none;" d="M426 242L426 243L437 243L426 242M516.667 242.333L517.333 242.667L516.667 242.333z"/>
<path style="fill:#f0f0f0; stroke:none;" d="M558 242L558 243L570 243L558 242z"/>
<path style="fill:#fcfcfc; stroke:none;" d="M570 242L570 243L592 243L570 242M403 243L404 244L403 243z"/>
</svg>
